<?xml version="1.0" encoding="utf-8"?>
<!-- Generator: Adobe Illustrator 24.1.2, SVG Export Plug-In . SVG Version: 6.00 Build 0)  -->
<svg version="1.1" id="_x38_8ce59e9-c4b8-4d1d-9d7a-ce0190159aa8"
	 xmlns="http://www.w3.org/2000/svg" xmlns:xlink="http://www.w3.org/1999/xlink" x="0px" y="0px" viewBox="0 0 231.8 231.8"
	 style="enable-background:new 0 0 231.8 231.8;" xml:space="preserve">
<style type="text/css">
	.st0{opacity:0.5;}
	.st1{fill:url(#SVGID_1_);}
	.st2{fill:#F5F5F5;}
	.st3{fill:#616161;}
	.st4{fill:#565656;}
</style>
<g class="st0">
	
		<linearGradient id="SVGID_1_" gradientUnits="userSpaceOnUse" x1="115.9" y1="-4.82" x2="115.9" y2="226.98" gradientTransform="matrix(1 0 0 -1 0 226.98)">
		<stop  offset="0" style="stop-color:#808080;stop-opacity:0.25"/>
		<stop  offset="0.54" style="stop-color:#808080;stop-opacity:0.12"/>
		<stop  offset="1" style="stop-color:#808080;stop-opacity:0.1"/>
	</linearGradient>
	<circle class="st1" cx="115.9" cy="115.9" r="115.9"/>
</g>
<circle class="st2" cx="115.9" cy="115.3" r="113.4"/>
<g>
	
		<image style="overflow:visible;opacity:0.75;" width="182" height="196" xlink:href="40E9C2C9.png"  transform="matrix(1 0 0 1 44 32.8)">
	</image>
	<g>
		<g>
			<path d="M52,181.6c0-42.7,0-85.3,0-128c0.3-0.5,0.1-1,0.2-1.5c0.2-3.7,2.1-6.4,4.8-8.8c1.7-1.5,3.7-2.3,6-2.4
				c24.2,0,48.4,0,72.6,0c0.5,0.3,1.1,0.1,1.7,0.2c4.1,0.1,7.1,2.3,9.9,5c3.5,3.3,5.4,7.5,6.1,12.2c0.1,0.6,0.2,1.3,0.2,1.9
				c0,7.4,0,14.8,0,22.2c0,2.2-0.7,4.1-2.4,5.5c-1.8,1.5-3.8,2.4-6.2,1.4c-2.7-1.1-4.4-2.9-4.7-5.9c-0.1-0.6,0-1.3,0-1.9
				c0-6,0-11.9,0-17.9c0-1.2-0.1-2.5-0.4-3.7c-0.7-2.9-2.7-4.6-5.7-4.6c-7.2,0-14.3,0-21.5,0c-1.4,0-2.8,0-4.1,0
				c-0.7,0-1.5,0-1.9-0.2c2.8,0.5,4.9,2.6,6.5,5c1.7,2.5,2.5,5.3,2.5,8.4c0,33.4,0,66.8,0,100.1c0,2.8,0,2.8,2.8,2.8
				c5.1,0,10.2,0,15.3,0c3.5,0,5.6-1.8,6.3-5.3c0.2-1.1,0.3-2.2,0.3-3.2c0-8.4,0-16.9,0-25.3c0-2.5,0.8-4.6,2.9-6.1
				c3.7-2.6,8.5-1.1,10,3.2c0.3,0.9,0.4,1.9,0.4,2.9c0,9.6,0.1,19.3,0,28.9c-0.1,5.1-2,9.6-5.5,13.4c-4.1,4.5-9.2,6.6-15.3,6.4
				c-5-0.1-10.1,0-15.1,0c-1.9,0-1.9,0.1-2,1.9c0,1.5,0,3.1,0,4.6c-0.1,6.4-3,10.9-8.9,13.5c-1.9,0.8-4,0.5-6,0.5
				c-1.6,0-2.9-0.9-4.4-1.3c-5.5-1.7-10.9-3.9-16.3-5.8c-6.5-2.3-12.9-4.6-19.3-7c-4.6-1.8-7.8-5.1-8.5-10.3
				C52.2,182,52.2,181.8,52,181.6z"/>
			<path class="st3" d="M137.1,40.9c0,0.1,0,0.2,0,0.3c-0.5,0.1-1.1,0.1-1.5-0.3C136.1,40.9,136.6,40.9,137.1,40.9z"/>
			<path class="st4" d="M52,52.1c0.1,0,0.2,0,0.3,0c0.1,0.5,0.1,1.1-0.3,1.5C52,53.1,52,52.6,52,52.1z"/>
			<path d="M152.7,116.7c-4,0-8,0.1-12,0c-3.7-0.1-6.2-2.5-6.4-6.2c-0.2-3.3,1.4-6.4,5-7.2c0.7-0.1,1.4-0.1,2.1-0.1
				c7.8,0,15.5,0,23.3,0c1.1,0,1.3-0.3,1.3-1.3c0-6.6,0-13.1,0-19.7c0-2.6,1.7-5.5,4.2-6.3c2.5-0.8,5.3-0.2,7,2
				c1.2,1.6,2.8,3,4.1,4.6c2.7,3.1,5.6,6,8.4,9.1c4.2,4.6,8.5,9.1,12.6,13.9c2.3,2.7,2.3,6.6-0.2,9.5c-2.6,3-5.4,5.8-8.1,8.7
				c-3.3,3.6-6.6,7.2-9.9,10.8c-2.5,2.7-4.9,5.5-7.3,8.2c-1.6,1.8-4.4,2.3-6.7,1.4c-2.7-1.1-3.9-3.3-4-6c-0.1-5.9,0-11.7-0.1-17.6
				c0-1.2,0.5-2.7-0.2-3.4c-0.6-0.6-2.2-0.2-3.3-0.2C159.1,116.6,155.9,116.7,152.7,116.7z"/>
		</g>
	</g>
</g>
</svg>
